<svg width="165" height="194" viewBox="0 0 165 194" fill="none" xmlns="http://www.w3.org/2000/svg">
<path d="M143.545 188.935L144.019 189.161C148.047 191.088 152.877 189.818 155.438 186.16C157.054 183.851 157.513 180.924 156.682 178.231L149.658 155.487C148.473 151.652 150.672 147.594 154.531 146.491C156.713 145.868 158.47 144.247 159.267 142.122L160.557 138.682C161.808 135.346 161.782 131.664 160.483 128.346L160.397 128.126C158.869 124.22 155.781 121.128 151.878 119.595L146.918 117.646C145.086 116.927 143.02 117.134 141.368 118.203C138.263 120.212 134.099 119.023 132.524 115.676L123.5 96.5L96.4609 48.216C95.8224 47.0758 95.0546 46.013 94.1726 45.0488L58.9904 6.58285C58.3396 5.87132 57.5278 5.32605 56.623 4.9927L54.5017 4.21117C51.59 3.13845 48.5 5.29311 48.5 8.39611C48.5 9.43287 48.8612 10.4372 49.5215 11.2365L53.25 15.75L58 21.5L85.9643 53.3215C86.6533 54.1055 87.2686 54.9513 87.8025 55.8482L111.339 95.3895C111.779 96.1288 112.162 96.9004 112.486 97.6977L125.755 130.428C126.577 132.457 127 134.626 127 136.815V138.255C127 139.745 127.196 141.229 127.583 142.668L138.336 182.67C139.075 185.418 140.978 187.707 143.545 188.935Z" fill="#080E1E"/>
<path fill-rule="evenodd" clip-rule="evenodd" d="M53.4646 7.02617C52.5115 6.67502 51.5 7.38033 51.5 8.39607C51.5 8.73545 51.6182 9.06422 51.8344 9.32587L60.2837 19.554L88.2178 51.3411C89.0284 52.2635 89.7523 53.2585 90.3804 54.3137L113.917 93.855C114.435 94.7247 114.885 95.6325 115.266 96.5706L128.535 129.301C129.502 131.688 130 134.239 130 136.815V138.255C130 139.482 130.161 140.704 130.48 141.889L141.233 181.891C141.745 183.794 143.062 185.378 144.839 186.228L145.313 186.455C148.018 187.748 151.261 186.896 152.98 184.44C154.065 182.889 154.374 180.924 153.815 179.116L146.791 156.372C145.111 150.93 148.231 145.171 153.707 143.607C154.974 143.244 155.995 142.303 156.458 141.068L157.748 137.629C158.739 134.985 158.718 132.068 157.689 129.439L157.603 129.219C156.379 126.091 153.907 123.615 150.781 122.387L145.821 120.439C144.889 120.073 143.838 120.178 142.997 120.722C138.367 123.718 132.158 121.944 129.81 116.954L120.831 97.8733L93.8434 49.6817C93.3176 48.7428 92.6853 47.8676 91.9589 47.0735L56.7767 8.60755C56.4493 8.24964 56.041 7.97537 55.5859 7.80769L53.4646 7.02617ZM45.5 8.39607C45.5 3.20581 50.6686 -0.398192 55.5388 1.39611L57.6601 2.17763C59.0146 2.67666 60.2299 3.49292 61.2041 4.55808L96.3863 43.024C97.4239 44.1584 98.3273 45.4087 99.0785 46.7501L126.169 95.1267L135.239 114.399C136.04 116.101 138.158 116.707 139.738 115.685C142.202 114.09 145.283 113.781 148.015 114.854L152.974 116.802C157.656 118.641 161.358 122.349 163.191 127.032L163.277 127.253C164.845 131.26 164.877 135.706 163.366 139.736L162.076 143.175C160.945 146.19 158.451 148.491 155.355 149.376C153.113 150.016 151.836 152.374 152.524 154.601L159.548 177.346C160.653 180.924 160.043 184.813 157.895 187.881C154.494 192.741 148.076 194.427 142.725 191.868L142.251 191.641C138.893 190.035 136.405 187.043 135.439 183.449L124.686 143.447C124.231 141.754 124 140.008 124 138.255V136.815C124 135.012 123.652 133.226 122.974 131.555L109.705 98.8248C109.439 98.1682 109.123 97.5327 108.761 96.9239L85.2246 57.3826C84.785 56.644 84.2782 55.9474 83.7108 55.3018L55.7163 23.4459L53.1106 20.2917L26.6718 48.5698L12.1279 63.5414C10.783 64.9259 9.73894 66.5734 9.06123 68.3807L7.01963 73.8249C5.61576 77.5686 5.95121 81.7429 7.93489 85.2143C9.09731 87.2486 10.7712 88.9437 12.7907 90.1316L23.133 96.2153C25.3766 97.5351 27.3409 99.28 28.9159 101.352L31.1453 104.286C35.0204 109.385 36.2194 116.031 34.3702 122.162L28.5854 141.344C27.582 144.67 25.3217 147.475 22.2841 149.163L21.9926 149.325C19.837 150.522 18.5 152.795 18.5 155.26V155.611C18.5 157.662 19.5251 159.578 21.2316 160.716C23.2464 162.059 25.8628 162.091 27.9101 160.798L29.1559 160.011C30.7061 159.032 31.8936 157.573 32.5374 155.856L34.191 151.447C34.7728 149.895 36.502 149.109 38.0534 149.691C39.6047 150.273 40.3907 152.002 39.809 153.553L38.1554 157.963C37.052 160.905 35.0167 163.406 32.3598 165.084L31.1141 165.871C27.0643 168.429 21.8888 168.365 17.9034 165.708C14.5277 163.457 12.5 159.669 12.5 155.611V155.26C12.5 150.616 15.0183 146.336 19.0786 144.08L19.3701 143.918C21.0432 142.989 22.2883 141.444 22.8409 139.611L28.6258 120.43C29.9202 116.138 29.0809 111.485 26.3683 107.916L24.1389 104.983C23.0364 103.532 21.6614 102.311 20.0909 101.387L9.74854 95.3032C6.82773 93.5851 4.40668 91.1334 2.72543 88.1912C-0.143653 83.1703 -0.628826 77.1328 1.40166 71.7182L3.44325 66.2739C4.41142 63.6922 5.90297 61.3385 7.82425 59.3607L22.3282 44.4301L49.2575 15.6275L47.2086 13.1472C46.1042 11.8102 45.5 10.1302 45.5 8.39607Z" fill="#080E1E"/>
<path d="M37 129.5C37 134.194 33.1944 138 28.5 138C23.8056 138 20 134.194 20 129.5C20 124.806 23.8056 121 28.5 121C33.1944 121 37 124.806 37 129.5Z" fill="#080E1E"/>
</svg>
