<svg width="390" height="543" viewBox="0 0 390 543" fill="none" preserveAspectRatio="none" xmlns="http://www.w3.org/2000/svg">
<path d="M28.8891 5.04928C16.8962 5.04928 0.905525 11.2644 -11.5872 27.8371C-11.5872 27.8371 -169.118 421.76 -6.09039 523.611C7.05172 531.821 13.7495 539.173 28.8891 542.293C54.0451 547.476 73.3262 522.426 98.9731 523.611C121.182 524.636 130.632 543.757 152.817 542.293C171.496 541.06 178.351 524.664 197.041 523.611C218.641 522.394 240.764 543.233 262.377 542.293C281.665 541.454 288.939 524.493 308.226 523.611C329.975 522.615 345.944 543.351 367.691 542.293C386.839 541.361 392.176 531.689 400.047 523.611C539.353 380.616 407.667 10.0176 407.667 10.0176C400.845 6.42282 399.093 2.32361 387.179 0C369.819 0.585237 342.705 17.0995 329.713 31.6008C305.325 58.8214 278.249 55.3367 254.257 31.6008C232.27 9.84861 213.281 8.81306 213.281 8.81306C213.281 8.81306 176.803 0.529068 154.316 27.4599C129.146 57.6034 108.144 56.7074 81.8582 31.6008C56.3731 7.25909 40.8821 5.04928 28.8891 5.04928Z" fill="#151C2D"/>
</svg>
