<svg width="390" height="457" viewBox="0 0 390 457" fill="none" preserveAspectRatio="none" xmlns="http://www.w3.org/2000/svg">
<path d="M28.3423 19.5C53.4983 24.6832 72.7794 -0.367081 98.4263 0.817677C120.635 1.84363 130.085 20.9641 152.27 19.5C170.949 18.2672 177.804 1.8707 196.494 0.817677C218.094 -0.399282 240.217 20.4403 261.831 19.5C281.119 18.6609 288.393 1.70053 307.679 0.817677C329.428 -0.177928 345.398 20.5583 367.144 19.5C386.292 18.5681 381.63 11.5789 389.5 3.5L392 18V456.25H390C390 456.25 362.159 438.202 342 438C321.295 437.793 313.204 456.529 292.5 456.25C272.523 455.981 264.976 438.333 245 438C224.115 437.652 215.884 456.672 195 456.25C175.207 455.85 167.792 438.462 148 438C126.935 437.508 118.571 456.25 97.5 456.25C76.4288 456.25 68.0649 437.508 47 438C27.2081 438.462 -2.43187e-05 456.25 -2.43187e-05 456.25H-0.933533L-2.43187e-05 10.5V5C13.1421 13.2105 13.2026 16.3805 28.3423 19.5Z" fill="#23304B"/>
</svg>
