<svg width="390" height="372" viewBox="0 0 390 372" fill="none" xmlns="http://www.w3.org/2000/svg">
<path d="M191.286 2.79261C192.626 -0.561234 197.374 -0.561246 198.714 2.7926L314.917 293.515C315.968 296.143 314.033 299 311.203 299H78.7969C75.9675 299 74.0325 296.143 75.0826 293.515L191.286 2.79261Z" fill="#EBE9E0"/>
<path d="M192.13 200.27C193.703 197.81 197.297 197.81 198.87 200.27C205.178 210.136 219.012 231.77 228.75 247C238.211 261.796 251.536 282.636 258.073 292.858C259.775 295.52 257.855 299 254.694 299H136.305C133.145 299 131.233 295.508 132.936 292.845L192.13 200.27Z" fill="#504A47"/>
<path d="M41.5 259.5L49 296.5L79 334L90 305.5V285L79 305.5V279L70 318V259.5L61.5 296.5L41.5 259.5Z" fill="#7F8F6F"/>
<path d="M341.5 279L328.5 305.5L299 318V279L308 305.5L322 275.5L318.5 305.5L341.5 279Z" fill="#7F8F6F"/>
<path d="M-17 299H406V334L209.5 359L-17 334V299Z" fill="#7F8F6F"/>
<path d="M-11 203L-3 282.5L-6.5 328L56.5 371.5L361.5 362L398 339.5L383.5 248L379 308.5L361.5 230.5L367.5 314.5L346 275.5L356 320L346 328.5L341 275.5L322 336.5L330 270.5L309.5 336.5V297L298.5 336.5L280.5 328.5L309.5 270.5L263 341L280.5 270.5L255.5 336.5L263 284.5L238 341L222 276.5L216 341L197.5 328V290L169.5 339.5L152 304V339.5L125.5 282.5V334L117 310.5L112.5 334V254L90.5 339.5L96.5 290L84 328L68.5 254L75 316.5L56.5 250L44.5 310.5V225L28.5 310.5L20.5 250V310.5L-11 203Z" fill="#4F5F3F"/>
</svg>
